<svg width="200" height="200" viewBox="0 0 200 200" fill="none" xmlns="http://www.w3.org/2000/svg">
<g clip-path="url(#clip0_1807_14544)">
<rect width="200" height="200" fill="white"/>
<circle cx="100" cy="100" r="100" fill="#F5F5F5"/>
<path d="M152.625 87.2826L102.751 48.9035L52.8766 87.2826C49.0202 90.2492 43.4209 87.5051 43.4209 82.6104C43.4209 80.7934 44.2738 79.0506 45.7199 77.9381L99.3766 36.6666C101.379 35.1463 104.123 35.1463 106.125 36.6666L159.782 77.9752C161.228 79.0877 162.081 80.7934 162.081 82.6475C162.081 87.5422 156.482 90.2862 152.625 87.3197V87.2826Z" fill="#F5F5F5" stroke="#55B748" stroke-width="3" stroke-miterlimit="10"/>
<path d="M54.5449 93.4382V154.177" stroke="#55B748" stroke-width="3" stroke-miterlimit="10"/>
<path d="M150.958 154.177V86.022" stroke="#55B748" stroke-width="3" stroke-miterlimit="10"/>
<path d="M61.9619 65.4789V37.7792H76.7944V54.0579" fill="#F5F5F5"/>
<path d="M61.9619 65.4789V37.7792H76.7944V54.0579" stroke="#55B748" stroke-width="3" stroke-miterlimit="10"/>
<path d="M99.044 95.9227H69.3789V125.588H99.044V95.9227Z" fill="#F5F5F5" stroke="#55B748" stroke-width="3" stroke-miterlimit="10"/>
<path d="M84.2109 95.9227V125.588" stroke="#55B748" stroke-width="3" stroke-miterlimit="10"/>
<path d="M69.3789 110.755H99.044" stroke="#55B748" stroke-width="3" stroke-miterlimit="10"/>
<path d="M111.577 154.177V110.755H138.424V154.177" fill="#F5F5F5"/>
<path d="M111.577 154.177V110.755H138.424V154.177" stroke="#55B748" stroke-width="3" stroke-miterlimit="10"/>
<path d="M162.081 154.178H43.4209" stroke="#55B748" stroke-width="3" stroke-miterlimit="10"/>
<path d="M111.576 137.899H54.5449" stroke="#55B748" stroke-width="3" stroke-miterlimit="10"/>
<path d="M138.424 137.899H150.957" stroke="#55B748" stroke-width="3" stroke-miterlimit="10"/>
<path d="M119.142 132.485C119.142 132.67 118.994 132.819 118.808 132.819C118.623 132.819 118.475 132.67 118.475 132.485C118.475 132.3 118.623 132.151 118.808 132.151C118.994 132.151 119.142 132.3 119.142 132.485Z" fill="#F5F5F5" stroke="#55B748" stroke-width="3" stroke-miterlimit="10"/>
</g>
<defs>
<clipPath id="clip0_1807_14544">
<rect width="200" height="200" fill="white"/>
</clipPath>
</defs>
</svg>
