<?xml version="1.0" encoding="UTF-8"?><svg id="Layer_1" xmlns="http://www.w3.org/2000/svg" xmlns:xlink="http://www.w3.org/1999/xlink" viewBox="0 0 2500 387"><defs><style>.cls-1,.cls-2,.cls-3,.cls-4,.cls-5,.cls-6,.cls-7,.cls-8,.cls-9,.cls-10,.cls-11,.cls-12,.cls-13,.cls-14,.cls-15{fill:none;}.cls-2{stroke-dasharray:0 7.69;}.cls-2,.cls-4,.cls-5,.cls-6,.cls-7,.cls-8,.cls-9,.cls-10,.cls-11,.cls-15{stroke:#16161e;}.cls-2,.cls-4,.cls-5,.cls-6,.cls-8,.cls-9,.cls-10,.cls-11,.cls-14,.cls-15{stroke-linejoin:round;}.cls-2,.cls-4,.cls-5,.cls-8,.cls-9,.cls-10,.cls-11,.cls-15{stroke-linecap:round;stroke-width:2px;}.cls-3{stroke:#cecfd8;}.cls-3,.cls-6,.cls-7,.cls-13,.cls-14{stroke-width:2.38px;}.cls-3,.cls-7,.cls-12,.cls-13{stroke-miterlimit:10;}.cls-4{stroke-dasharray:0 7.75;}.cls-5{stroke-dasharray:0 8.11;}.cls-16{fill:#fff;}.cls-8{stroke-dasharray:0 8.02;}.cls-9{stroke-dasharray:0 7.45;}.cls-11{stroke-dasharray:0 8.18;}.cls-17{fill:#cccdd6;}.cls-12{stroke:#55b548;stroke-width:7px;}.cls-13,.cls-14{stroke:#cfd0da;}.cls-18{fill:#55b548;}.cls-19{fill:#cfd0da;}.cls-20{clip-path:url(#clippath);}.cls-15{stroke-dasharray:0 8.2;}</style><clipPath id="clippath"><rect class="cls-1" x="-4" y="-1.5" width="2506" height="393"/></clipPath></defs><g class="cls-20"><path class="cls-7" d="M1427.39,377.1v-2.39c0-10.58,7.68-19.15,17.16-19.15h27.17c2.54,0,4.95.62,7.12,1.72,5.42,2.76,8.7,8.47,8.7,14.55v13.22"/><path class="cls-7" d="M1509.34,385.05v-12.87c0-5.89,2.99-11.47,8.07-14.44,2.38-1.39,5.08-2.18,7.96-2.18h27.17c3.57,0,6.88,1.22,9.63,3.3,4.29,3.25,6.69,8.42,6.69,13.8v12.4"/><path class="cls-7" d="M1588.15,385.05v-12.87c0-5.89,2.99-11.47,8.07-14.44,2.38-1.39,5.08-2.18,7.96-2.18h27.17c3.57,0,6.88,1.22,9.63,3.3,4.29,3.25,6.69,8.42,6.69,13.8v12.4"/><line class="cls-13" x1="984.25" y1="335.44" x2="1014.41" y2="335.44"/><line class="cls-13" x1="1022.98" y1="335.44" x2="1094.53" y2="335.44"/><line class="cls-13" x1="1103.11" y1="335.44" x2="1174.14" y2="335.44"/><line class="cls-13" x1="1183.24" y1="335.44" x2="1254.01" y2="335.44"/><line class="cls-13" x1="1263.01" y1="335.44" x2="1333.88" y2="335.44"/><line class="cls-13" x1="1342.72" y1="335.44" x2="1413.45" y2="335.44"/><line class="cls-13" x1="1423.07" y1="335.44" x2="1493.49" y2="335.44"/><line class="cls-13" x1="1502.46" y1="335.44" x2="1573.49" y2="335.44"/><line class="cls-13" x1="1581.97" y1="335.44" x2="1627.63" y2="335.44"/><rect class="cls-17" x="988.07" y="321.17" width="8.8" height="2.52"/><rect class="cls-17" x="1001.9" y="321.17" width="8.8" height="2.52"/><rect class="cls-17" x="1026.69" y="321.17" width="8.8" height="2.52"/><rect class="cls-17" x="1040.52" y="321.17" width="8.8" height="2.52"/><rect class="cls-17" x="1054.36" y="321.17" width="8.8" height="2.52"/><rect class="cls-17" x="1068.19" y="321.17" width="8.8" height="2.52"/><rect class="cls-17" x="1082.03" y="321.17" width="8.8" height="2.52"/><rect class="cls-17" x="1106.82" y="321.17" width="8.8" height="2.52"/><rect class="cls-17" x="1120.65" y="321.17" width="8.8" height="2.52"/><rect class="cls-17" x="1134.49" y="321.17" width="8.8" height="2.52"/><rect class="cls-17" x="1148.32" y="321.17" width="8.8" height="2.52"/><rect class="cls-17" x="1162.16" y="321.17" width="8.8" height="2.52"/><rect class="cls-17" x="1186.94" y="321.17" width="8.8" height="2.52"/><rect class="cls-17" x="1200.78" y="321.17" width="8.8" height="2.52"/><rect class="cls-17" x="1214.61" y="321.17" width="8.8" height="2.52"/><rect class="cls-17" x="1228.45" y="321.17" width="8.8" height="2.52"/><rect class="cls-17" x="1242.29" y="321.17" width="8.8" height="2.52"/><rect class="cls-17" x="1264.98" y="321.17" width="8.8" height="2.52"/><rect class="cls-17" x="1278.81" y="321.17" width="8.8" height="2.52"/><rect class="cls-17" x="1292.65" y="321.17" width="8.8" height="2.52"/><rect class="cls-17" x="1306.48" y="321.17" width="8.8" height="2.52"/><rect class="cls-17" x="1320.32" y="321.17" width="8.8" height="2.52"/><polyline class="cls-7" points="1023.24 480.41 1023.24 315.59 1014.41 315.59 1014.41 478.27"/><polyline class="cls-7" points="1103.11 511.33 1103.11 315.59 1094.28 315.59 1094.28 511.59"/><polyline class="cls-7" points="1182.98 512.2 1182.98 315.59 1174.14 315.59 1174.14 512.2"/><line class="cls-7" x1="1262.53" y1="323.69" x2="1333.71" y2="323.69"/><line class="cls-7" x1="1183.21" y1="323.69" x2="1253.82" y2="323.69"/><line class="cls-7" x1="1103.11" y1="323.69" x2="1174.14" y2="323.69"/><line class="cls-7" x1="1023.24" y1="323.69" x2="1094.05" y2="323.69"/><line class="cls-7" x1="984.25" y1="323.69" x2="1014.41" y2="323.69"/><path class="cls-7" d="M1009.64,478.27v-103.55c0-10.58-7.68-19.15-17.16-19.15h-7.01"/><path class="cls-7" d="M1089.51,506.2v-131.49c0-10.58-7.68-19.15-17.16-19.15h-27.17c-9.48,0-17.16,8.58-17.16,19.15v108.82"/><path class="cls-7" d="M1169.38,512.2v-137.49c0-10.58-7.68-19.15-17.16-19.15h-27.17c-9.48,0-17.16,8.58-17.16,19.15v137.17"/><path class="cls-7" d="M1253.74,387.3c-39.83,27.09-65.99,73.09-65.99,124.89"/><path class="cls-7" d="M1333.71,361.4c-25.66.77-49.71,7.96-70.59,20.02"/><path class="cls-7" d="M1253.74,373.87c-30.21,18.16-53.65,46.05-65.86,80.11"/><path class="cls-7" d="M1333.71,350.87c-25.51.68-49.53,6.99-70.7,17.85"/><rect class="cls-7" x="1254.01" y="315.59" width="8.84" height="73.92"/><rect class="cls-17" x="1585.77" y="321.17" width="8.8" height="2.52" transform="translate(3180.34 644.86) rotate(180)"/><rect class="cls-17" x="1599.81" y="321.17" width="8.8" height="2.52" transform="translate(3208.42 644.86) rotate(180)"/><rect class="cls-17" x="1614.14" y="321.17" width="8.8" height="2.52" transform="translate(3237.08 644.86) rotate(180)"/><rect class="cls-17" x="1560.98" y="321.17" width="8.8" height="2.52" transform="translate(3130.77 644.86) rotate(180)"/><rect class="cls-17" x="1547.15" y="321.17" width="8.8" height="2.52" transform="translate(3103.1 644.86) rotate(180)"/><rect class="cls-17" x="1533.31" y="321.17" width="8.8" height="2.52" transform="translate(3075.43 644.86) rotate(180)"/><rect class="cls-17" x="1519.48" y="321.17" width="8.8" height="2.52" transform="translate(3047.76 644.86) rotate(180)"/><rect class="cls-17" x="1505.64" y="321.17" width="8.8" height="2.52" transform="translate(3020.08 644.86) rotate(180)"/><rect class="cls-17" x="1480.86" y="321.17" width="8.8" height="2.52" transform="translate(2970.51 644.86) rotate(180)"/><rect class="cls-17" x="1467.02" y="321.17" width="8.8" height="2.52" transform="translate(2942.84 644.86) rotate(180)"/><rect class="cls-17" x="1453.18" y="321.17" width="8.8" height="2.52" transform="translate(2915.17 644.86) rotate(180)"/><rect class="cls-17" x="1439.35" y="321.17" width="8.8" height="2.52" transform="translate(2887.5 644.86) rotate(180)"/><rect class="cls-17" x="1425.51" y="321.17" width="8.8" height="2.52" transform="translate(2859.83 644.86) rotate(180)"/><rect class="cls-17" x="1400.73" y="321.17" width="8.8" height="2.52" transform="translate(2810.26 644.86) rotate(180)"/><rect class="cls-17" x="1386.89" y="321.17" width="8.8" height="2.52" transform="translate(2782.59 644.86) rotate(180)"/><rect class="cls-17" x="1373.06" y="321.17" width="8.8" height="2.52" transform="translate(2754.91 644.86) rotate(180)"/><rect class="cls-17" x="1359.22" y="321.17" width="8.8" height="2.52" transform="translate(2727.24 644.86) rotate(180)"/><rect class="cls-17" x="1345.38" y="321.17" width="8.8" height="2.52" transform="translate(2699.57 644.86) rotate(180)"/><polyline class="cls-7" points="1573.49 385.05 1573.49 315.59 1582.33 315.59 1582.33 385.05"/><polyline class="cls-7" points="1493.62 385.05 1493.62 315.59 1502.46 315.59 1502.46 385.05"/><line class="cls-7" x1="1413.51" y1="323.69" x2="1342.72" y2="323.69"/><line class="cls-7" x1="1493.49" y1="323.69" x2="1422.82" y2="323.69"/><line class="cls-7" x1="1573.49" y1="323.69" x2="1502.46" y2="323.69"/><line class="cls-7" x1="2500" y1="323.69" x2="1582.33" y2="323.69"/><path class="cls-7" d="M1422.81,387.27c9.5,6.46,21.44,17.39,29.22,25.79"/><path class="cls-7" d="M1187.78,512.2v-137.49c0-10.58,7.68-19.15,17.16-19.15h27.17c9.48,0,17.16,8.58,17.16,19.15v1.95"/><path class="cls-7" d="M1343.07,361.4c25.58.8,49.55,7.97,70.38,19.99"/><path class="cls-7" d="M1422.81,373.84c10.55,6.33,20.27,13.85,28.98,22.41l9.31,9.02"/><path class="cls-7" d="M1342.89,350.87c25.46.68,49.42,6.96,70.56,17.77"/><rect class="cls-7" x="1333.88" y="315.59" width="8.84" height="47.97" transform="translate(2676.6 679.16) rotate(180)"/><rect class="cls-7" x="1413.75" y="315.59" width="8.84" height="73.92"/><polyline class="cls-7" points="827.75 346.6 827.75 226.1 899.71 226.1 948.63 254.92 948.63 429.14"/><polyline class="cls-7" points="898.67 226.1 935.33 226.1 984.25 254.92 984.25 497.3"/><rect class="cls-19" x="843.82" y="264.68" width="88.74" height="5.31"/><rect class="cls-19" x="843.82" y="284.4" width="88.74" height="5.31"/><rect class="cls-17" x="843.82" y="304.12" width="88.74" height="5.31"/><rect class="cls-17" x="843.82" y="323.84" width="88.74" height="5.31"/><rect class="cls-17" x="891.69" y="341.29" width="40.87" height="5.31"/><line class="cls-7" x1="948.63" y1="254.92" x2="984.25" y2="254.92"/><polyline class="cls-7" points="705.88 110.61 705.88 53.05 643.21 53.05 643.21 110.61"/><polyline class="cls-7" points="700.92 51.19 700.92 3.84 688.18 3.84 688.18 51.19"/><rect class="cls-19" x="709.38" y="131.16" width="5.14" height="15.98"/><rect class="cls-19" x="691.11" y="131.16" width="5.14" height="15.98"/><rect class="cls-19" x="672.85" y="131.16" width="5.14" height="15.98"/><rect class="cls-19" x="654.58" y="131.16" width="5.14" height="15.98"/><rect class="cls-19" x="636.31" y="131.16" width="5.14" height="15.98"/><rect class="cls-17" x="709.38" y="160.27" width="5.14" height="15.98"/><rect class="cls-17" x="691.11" y="160.27" width="5.14" height="15.98"/><rect class="cls-17" x="672.85" y="160.27" width="5.14" height="15.98"/><rect class="cls-17" x="654.58" y="160.27" width="5.14" height="15.98"/><rect class="cls-19" x="709.38" y="189.38" width="5.14" height="15.98"/><rect class="cls-19" x="691.11" y="189.38" width="5.14" height="15.98"/><rect class="cls-19" x="709.38" y="218.49" width="5.14" height="15.98"/><line class="cls-7" x1="688.18" y1="64.87" x2="688.18" y2="110.44"/><line class="cls-7" x1="674.96" y1="64.87" x2="674.96" y2="110.44"/><line class="cls-7" x1="661.74" y1="64.87" x2="661.74" y2="110.44"/><polygon class="cls-7" points="617.45 250.72 617.45 147.13 621.44 144.91 621.44 133.16 617.45 130.94 617.45 111.54 731.64 111.54 731.64 130.94 727.77 133.16 727.77 144.91 731.64 147.13 731.64 250.72 617.45 250.72"/><polyline class="cls-7" points="617.45 250.72 609.41 250.72 609.41 259.18 614.85 259.18 614.85 322.9 607.63 332.72 607.63 472.73"/><polyline class="cls-7" points="730.83 250.72 738.87 250.72 738.87 259.18 733.43 259.18 733.43 322.9 740.65 332.72 740.65 360.5"/><polyline class="cls-7" points="745.31 110.61 745.31 53.05 705.74 53.05"/><polyline class="cls-7" points="734.21 111.54 771.07 111.54 771.07 130.94 767.2 133.16 767.2 144.91 771.07 147.13 771.07 250.72"/><polyline class="cls-7" points="780.09 346.6 780.09 332.72 772.87 322.9 772.87 259.18 778.31 259.18 778.31 250.72 770.27 250.72 737.87 250.72"/><line class="cls-7" x1="772.87" y1="259.18" x2="738.87" y2="259.18"/><line class="cls-7" x1="617.45" y1="259.18" x2="726" y2="259.18"/><line class="cls-13" x1="630.57" y1="272.45" x2="630.57" y2="312.43"/><line class="cls-13" x1="648.02" y1="272.45" x2="648.02" y2="312.43"/><line class="cls-13" x1="665.47" y1="272.45" x2="665.47" y2="312.43"/><line class="cls-13" x1="682.92" y1="272.45" x2="682.92" y2="312.43"/><line class="cls-13" x1="700.37" y1="272.45" x2="700.37" y2="312.43"/><line class="cls-13" x1="717.82" y1="272.45" x2="717.82" y2="312.43"/><line class="cls-13" x1="731.64" y1="335.57" x2="619.71" y2="335.57"/><line class="cls-13" x1="731.64" y1="360.5" x2="619.71" y2="360.5"/><path class="cls-19" d="M761.03,386.33c-2.35,0-4.25-1.9-4.25-4.25s1.9-4.25,4.25-4.25,4.25,1.9,4.25,4.25-1.9,4.25-4.25,4.25Z"/><line class="cls-13" x1="779.96" y1="357.07" x2="812.36" y2="387.32"/><line class="cls-13" x1="796.05" y1="357.07" x2="828.45" y2="387.32"/><line class="cls-13" x1="812.14" y1="357.07" x2="844.54" y2="387.32"/><line class="cls-13" x1="828.23" y1="357.07" x2="860.63" y2="387.32"/><line class="cls-13" x1="844.33" y1="357.07" x2="876.73" y2="387.32"/><polyline class="cls-7" points="896.38 390.33 858.07 354.1 761.24 354.1"/><polyline class="cls-7" points="807.03 511.13 807.03 501.23 799.93 501.23 799.93 399.73 900.08 399.73 900.08 390.33 799.55 390.33 761.24 354.1 722.01 390.33 717.98 390.33 717.98 399.73 721.62 399.73 721.62 434.47"/><path class="cls-7" d="M1035.49,319.32v-19.38c0-3.27,2.65-5.92,5.92-5.92h146.48c3.27,0,5.92,2.65,5.92,5.92v19.38"/><polyline class="cls-3" points="1175.05 309.22 1189.63 309.22 1189.63 299.47 1177.34 299.47"/><line class="cls-3" x1="1121.12" y1="309.22" x2="1162.21" y2="309.22"/><line class="cls-3" x1="1068.28" y1="309.22" x2="1108.93" y2="309.22"/><polyline class="cls-3" points="1055.83 309.22 1039.38 309.22 1039.38 299.47 1052.17 299.47"/><rect class="cls-7" x="1056.01" y="298.34" width="12.01" height="17.67"/><rect class="cls-7" x="1109.32" y="298.34" width="12.01" height="17.67"/><polyline class="cls-7" points="1170.96 316.01 1162.64 316.01 1162.64 298.34 1174.66 298.34 1174.66 312.62"/><line class="cls-7" x1="1062.01" y1="298.34" x2="1062.01" y2="311.89"/><line class="cls-7" x1="1115.33" y1="315.61" x2="1115.33" y2="303.65"/><line class="cls-7" x1="1168.65" y1="298.34" x2="1168.65" y2="311.89"/><line class="cls-3" x1="1071.46" y1="299.47" x2="1106.98" y2="299.47"/><line class="cls-3" x1="1123.84" y1="299.47" x2="1160.09" y2="299.47"/><path class="cls-7" d="M1193.81,319.32v-19.38c0-3.27,2.65-5.92,5.92-5.92h146.48c3.27,0,5.92,2.65,5.92,5.92v19.38"/><polyline class="cls-3" points="1333.37 309.22 1347.95 309.22 1347.95 299.47 1335.66 299.47"/><line class="cls-3" x1="1279.44" y1="309.22" x2="1320.53" y2="309.22"/><line class="cls-3" x1="1226.6" y1="309.22" x2="1267.25" y2="309.22"/><polyline class="cls-3" points="1214.15 309.22 1197.7 309.22 1197.7 299.47 1210.49 299.47"/><polyline class="cls-7" points="1222.22 316.01 1214.32 316.01 1214.32 298.34 1226.34 298.34 1226.34 312.55"/><rect class="cls-7" x="1267.64" y="298.34" width="12.01" height="17.67"/><polyline class="cls-7" points="1330.85 316.01 1320.96 316.01 1320.96 298.34 1332.98 298.34 1332.98 313.06"/><line class="cls-7" x1="1220.33" y1="298.34" x2="1220.33" y2="311.89"/><line class="cls-7" x1="1273.65" y1="315.61" x2="1273.65" y2="303.65"/><line class="cls-7" x1="1326.97" y1="298.34" x2="1326.97" y2="311.89"/><line class="cls-3" x1="1229.78" y1="299.47" x2="1265.29" y2="299.47"/><line class="cls-3" x1="1282.16" y1="299.47" x2="1318.41" y2="299.47"/><path class="cls-7" d="M1352.13,319.32v-19.38c0-3.27,2.65-5.92,5.92-5.92h146.48c1.14,0,2.31.18,3.53.58,4.54,1.5,7.76,5.54,8.47,10.27l2.18,14.46"/><path class="cls-3" d="M1493.98,299.47h16.06s3.56,3.73,3.56,9.75h-21.92"/><line class="cls-3" x1="1437.76" y1="309.22" x2="1478.85" y2="309.22"/><line class="cls-3" x1="1384.92" y1="309.22" x2="1425.57" y2="309.22"/><polyline class="cls-3" points="1372.47 309.22 1356.02 309.22 1356.02 299.47 1368.81 299.47"/><rect class="cls-7" x="1372.64" y="298.34" width="12.01" height="17.67"/><rect class="cls-7" x="1425.96" y="298.34" width="12.01" height="17.67"/><polyline class="cls-7" points="1487.44 316.01 1479.28 316.01 1479.28 298.34 1491.3 298.34 1491.3 312.71"/><line class="cls-7" x1="1378.65" y1="298.34" x2="1378.65" y2="311.89"/><line class="cls-7" x1="1431.97" y1="315.61" x2="1431.97" y2="303.65"/><line class="cls-7" x1="1485.29" y1="298.34" x2="1485.29" y2="311.89"/><line class="cls-3" x1="1388.1" y1="299.47" x2="1423.61" y2="299.47"/><line class="cls-3" x1="1440.48" y1="299.47" x2="1476.73" y2="299.47"/><polyline class="cls-6" points="851.65 173.25 851.65 111.95 755.87 51.19"/><line class="cls-6" x1="898.16" y1="154.07" x2="898.16" y2="216.26"/><polyline class="cls-6" points="802.38 346.6 802.38 214.83 898.16 154.07"/><polyline class="cls-6" points="924.95 216.26 924.95 154.07 898.16 154.07"/><line class="cls-14" x1="782.19" y1="92.7" x2="782.19" y2="202.29"/><line class="cls-14" x1="792.97" y1="98.99" x2="792.97" y2="196.79"/><line class="cls-14" x1="803.76" y1="105.27" x2="803.76" y2="192.86"/><line class="cls-14" x1="814.54" y1="111.56" x2="814.54" y2="189.72"/><line class="cls-14" x1="825.33" y1="117.85" x2="825.33" y2="182.71"/><line class="cls-14" x1="836.11" y1="124.14" x2="836.11" y2="178.18"/><line class="cls-10" x1="1138.31" y1="282.77" x2="1138.31" y2="282.77"/><line class="cls-8" x1="1138.31" y1="274.75" x2="1138.31" y2="158.51"/><line class="cls-10" x1="1138.31" y1="154.5" x2="1138.31" y2="154.5"/><line class="cls-10" x1="2105.24" y1="313.02" x2="2105.24" y2="313.02"/><line class="cls-15" x1="2105.24" y1="304.83" x2="2105.24" y2="169.6"/><line class="cls-10" x1="2105.24" y1="165.5" x2="2105.24" y2="165.5"/><line class="cls-10" x1="1353.2" y1="286.5" x2="1353.2" y2="286.5"/><line class="cls-4" x1="1353.2" y1="278.75" x2="1353.2" y2="197.38"/><line class="cls-10" x1="1353.2" y1="193.5" x2="1353.2" y2="193.5"/><circle class="cls-18" cx="1138.31" cy="81.54" r="63.37"/><path class="cls-16" d="M1134.3,124.85v-4.8c0-1.6-1.19-2.96-2.78-3.12-4.18-.42-8.27-1.59-11.4-3.18-1.39-.71-2-2.37-1.48-3.84l.46-1.29c.63-1.75,2.64-2.59,4.31-1.78,3.53,1.71,7.89,2.91,12.5,2.91,7.67,0,12.85-4.43,12.85-10.58s-4.21-9.61-12.2-12.85c-11.02-4.32-17.82-9.29-17.82-18.68,0-8.22,5.35-14.62,13.9-16.88,1.4-.37,2.41-1.6,2.41-3.05v-5.22c0-1.74,1.41-3.15,3.15-3.15h.4c1.74,0,3.15,1.41,3.15,3.15v4.4c0,1.59,1.18,2.95,2.76,3.12,3.48.38,6.27,1.21,8.55,2.2,1.55.68,2.33,2.43,1.73,4.02l-.46,1.22c-.64,1.69-2.55,2.49-4.21,1.76-2.5-1.09-6.01-2.16-10.64-2.16-8.32,0-11.45,4.97-11.45,9.29,0,5.62,4,8.42,13.39,12.31,11.12,4.54,16.74,10.15,16.74,19.76,0,7.92-5.12,15.38-14.76,17.87-1.37.36-2.3,1.63-2.3,3.05v5.52c0,1.74-1.41,3.15-3.15,3.15h-.51c-1.74,0-3.15-1.41-3.15-3.15Z"/><line class="cls-10" x1="96.77" y1="282.77" x2="96.77" y2="282.77"/><line class="cls-9" x1="96.77" y1="275.32" x2="96.77" y2="249.23"/><line class="cls-10" x1="96.77" y1="245.5" x2="96.77" y2="245.5"/><circle class="cls-18" cx="96.07" cy="175.83" r="63.37"/><path class="cls-16" d="M92.21,219.16l-.02-4.8c0-1.6-1.2-2.96-2.79-3.11-4.19-.4-8.28-1.56-11.41-3.14-1.39-.7-2.01-2.36-1.49-3.83l.46-1.3c.62-1.76,2.63-2.6,4.31-1.79,3.54,1.7,7.9,2.88,12.51,2.86,7.67-.03,12.84-4.47,12.81-10.63s-4.25-9.6-12.25-12.81c-11.03-4.28-17.85-9.23-17.88-18.62-.03-8.22,5.3-14.64,13.84-16.92,1.4-.38,2.4-1.61,2.4-3.06l-.02-5.22c0-1.74,1.4-3.15,3.14-3.16h.4c1.74,0,3.15,1.4,3.16,3.13l.02,4.4c0,1.59,1.19,2.95,2.78,3.11,3.48.36,6.28,1.18,8.56,2.17,1.56.67,2.33,2.42,1.74,4.01l-.46,1.22c-.63,1.69-2.54,2.5-4.2,1.78-2.5-1.08-6.02-2.14-10.65-2.12-8.32.03-11.43,5.01-11.42,9.33.02,5.62,4.03,8.41,13.43,12.27,11.14,4.5,16.78,10.09,16.81,19.71.03,7.92-5.07,15.4-14.7,17.93-1.37.36-2.3,1.64-2.29,3.06l.02,5.52c0,1.74-1.4,3.15-3.14,3.16h-.51c-1.74,0-3.15-1.4-3.16-3.13Z"/><line class="cls-10" x1="1619.31" y1="313.5" x2="1619.31" y2="313.5"/><line class="cls-5" x1="1619.31" y1="305.39" x2="1619.31" y2="244.56"/><line class="cls-10" x1="1619.31" y1="240.5" x2="1619.31" y2="240.5"/><circle class="cls-18" cx="2105.24" cy="106.05" r="47.44"/><path class="cls-16" d="M2102.24,138.48v-3.59c0-1.2-.89-2.22-2.08-2.34-3.13-.31-6.19-1.19-8.53-2.38-1.04-.53-1.5-1.77-1.1-2.87l.35-.97c.47-1.31,1.97-1.94,3.23-1.33,2.65,1.28,5.91,2.17,9.36,2.17,5.74,0,9.62-3.31,9.62-7.92s-3.15-7.2-9.14-9.62c-8.25-3.23-13.34-6.95-13.34-13.99,0-6.15,4.01-10.94,10.4-12.63,1.05-.28,1.8-1.2,1.8-2.28v-3.91c0-1.3,1.05-2.36,2.36-2.36h.3c1.3,0,2.36,1.05,2.36,2.36v3.29c0,1.19.89,2.21,2.07,2.34,2.6.28,4.7.9,6.4,1.65,1.16.51,1.74,1.82,1.29,3.01l-.35.91c-.48,1.26-1.91,1.86-3.15,1.32-1.87-.82-4.5-1.62-7.97-1.62-6.23,0-8.57,3.72-8.57,6.95,0,4.2,2.99,6.31,10.02,9.22,8.33,3.4,12.53,7.6,12.53,14.8,0,5.93-3.83,11.51-11.05,13.38-1.03.27-1.72,1.22-1.72,2.28v4.13c0,1.3-1.05,2.36-2.36,2.36h-.38c-1.3,0-2.36-1.05-2.36-2.36Z"/><circle class="cls-18" cx="1618.8" cy="193.5" r="39"/><path class="cls-16" d="M1616.33,220.15v-2.95c0-.98-.73-1.82-1.71-1.92-2.57-.26-5.09-.98-7.01-1.96-.85-.44-1.23-1.46-.91-2.36l.29-.8c.39-1.08,1.62-1.59,2.65-1.09,2.17,1.05,4.86,1.79,7.69,1.79,4.72,0,7.91-2.72,7.91-6.51s-2.59-5.91-7.51-7.91c-6.78-2.66-10.96-5.72-10.96-11.5,0-5.06,3.29-9,8.55-10.38.86-.23,1.48-.98,1.48-1.88v-3.21c0-1.07.87-1.94,1.94-1.94h.25c1.07,0,1.94.87,1.94,1.94v2.71c0,.98.73,1.82,1.7,1.92,2.14.23,3.86.74,5.26,1.35.96.42,1.43,1.5,1.06,2.47l-.28.75c-.39,1.04-1.57,1.53-2.59,1.08-1.54-.67-3.7-1.33-6.55-1.33-5.12,0-7.04,3.06-7.04,5.72,0,3.46,2.46,5.18,8.24,7.58,6.84,2.79,10.3,6.25,10.3,12.16,0,4.87-3.15,9.46-9.08,11-.84.22-1.42,1-1.42,1.88v3.4c0,1.07-.87,1.94-1.94,1.94h-.31c-1.07,0-1.94-.87-1.94-1.94Z"/><circle class="cls-12" cx="1353.2" cy="143.55" r="38.6"/><path class="cls-18" d="M1350.76,169.93v-2.93c0-.97-.73-1.81-1.69-1.9-2.55-.26-5.04-.97-6.94-1.94-.85-.43-1.22-1.44-.9-2.34l.28-.79c.38-1.07,1.61-1.58,2.63-1.08,2.15,1.04,4.81,1.77,7.61,1.77,4.67,0,7.83-2.7,7.83-6.45s-2.57-5.85-7.43-7.83c-6.71-2.63-10.85-5.66-10.85-11.38,0-5.01,3.26-8.9,8.47-10.28.85-.23,1.47-.97,1.47-1.86v-3.18c0-1.06.86-1.92,1.92-1.92h.25c1.06,0,1.92.86,1.92,1.92v2.68c0,.97.72,1.8,1.68,1.9,2.12.23,3.82.73,5.21,1.34.95.41,1.42,1.48,1.05,2.45l-.28.74c-.39,1.03-1.56,1.51-2.56,1.07-1.52-.67-3.66-1.31-6.48-1.31-5.07,0-6.97,3.03-6.97,5.66,0,3.42,2.43,5.13,8.16,7.5,6.78,2.76,10.2,6.18,10.2,12.04,0,4.83-3.12,9.37-8.99,10.89-.84.22-1.4.99-1.4,1.86v3.36c0,1.06-.86,1.92-1.92,1.92h-.31c-1.06,0-1.92-.86-1.92-1.92Z"/><path class="cls-7" d="M364.39,377.1v-2.39c0-10.58,7.68-19.15,17.16-19.15h27.17c2.54,0,4.95.62,7.12,1.72,5.42,2.76,8.7,8.47,8.7,14.55v13.22"/><path class="cls-7" d="M446.34,385.05v-12.87c0-5.89,2.99-11.47,8.07-14.44,2.38-1.39,5.08-2.18,7.96-2.18h27.17c3.57,0,6.88,1.22,9.63,3.3,4.29,3.25,6.69,8.42,6.69,13.8v12.4"/><path class="cls-7" d="M525.15,385.05v-12.87c0-5.89,2.99-11.47,8.07-14.44,2.38-1.39,5.08-2.18,7.96-2.18h27.17c3.57,0,6.88,1.22,9.63,3.3,4.29,3.25,6.69,8.42,6.69,13.8v12.4"/><line class="cls-13" x1="-40.02" y1="335.44" x2="31.53" y2="335.44"/><line class="cls-13" x1="40.11" y1="335.44" x2="111.14" y2="335.44"/><line class="cls-13" x1="120.24" y1="335.44" x2="191.01" y2="335.44"/><line class="cls-13" x1="200.01" y1="335.44" x2="270.88" y2="335.44"/><line class="cls-13" x1="279.72" y1="335.44" x2="350.45" y2="335.44"/><line class="cls-13" x1="360.07" y1="335.44" x2="430.49" y2="335.44"/><line class="cls-13" x1="439.46" y1="335.44" x2="510.49" y2="335.44"/><line class="cls-13" x1="518.97" y1="335.44" x2="564.63" y2="335.44"/><rect class="cls-17" x="-8.64" y="321.17" width="8.8" height="2.52"/><rect class="cls-17" x="5.19" y="321.17" width="8.8" height="2.52"/><rect class="cls-17" x="19.03" y="321.17" width="8.8" height="2.52"/><rect class="cls-17" x="43.82" y="321.17" width="8.8" height="2.52"/><rect class="cls-17" x="57.65" y="321.17" width="8.8" height="2.52"/><rect class="cls-17" x="71.49" y="321.17" width="8.8" height="2.52"/><rect class="cls-17" x="85.32" y="321.17" width="8.8" height="2.52"/><rect class="cls-17" x="99.16" y="321.17" width="8.8" height="2.52"/><rect class="cls-17" x="123.94" y="321.17" width="8.8" height="2.52"/><rect class="cls-17" x="137.78" y="321.17" width="8.8" height="2.52"/><rect class="cls-17" x="151.61" y="321.17" width="8.8" height="2.52"/><rect class="cls-17" x="165.45" y="321.17" width="8.8" height="2.52"/><rect class="cls-17" x="179.29" y="321.17" width="8.8" height="2.52"/><rect class="cls-17" x="201.98" y="321.17" width="8.8" height="2.52"/><rect class="cls-17" x="215.81" y="321.17" width="8.8" height="2.52"/><rect class="cls-17" x="229.65" y="321.17" width="8.8" height="2.52"/><rect class="cls-17" x="243.48" y="321.17" width="8.8" height="2.52"/><rect class="cls-17" x="257.32" y="321.17" width="8.8" height="2.52"/><polyline class="cls-7" points="40.11 511.33 40.11 315.59 31.28 315.59 31.28 511.59"/><polyline class="cls-7" points="119.98 512.2 119.98 315.59 111.14 315.59 111.14 512.2"/><line class="cls-7" x1="199.53" y1="323.69" x2="270.71" y2="323.69"/><line class="cls-7" x1="120.21" y1="323.69" x2="190.82" y2="323.69"/><line class="cls-7" x1="40.11" y1="323.69" x2="111.14" y2="323.69"/><line class="cls-7" x1="-39.76" y1="323.69" x2="31.05" y2="323.69"/><path class="cls-7" d="M26.51,506.2v-131.49c0-10.58-7.68-19.15-17.16-19.15h-27.17c-9.48,0-17.16,8.58-17.16,19.15v108.82"/><path class="cls-7" d="M106.38,512.2v-137.49c0-10.58-7.68-19.15-17.16-19.15h-27.17c-9.48,0-17.16,8.58-17.16,19.15v137.17"/><path class="cls-7" d="M190.74,387.3c-39.83,27.09-65.99,73.09-65.99,124.89"/><path class="cls-7" d="M270.71,361.4c-25.66.77-49.71,7.96-70.59,20.02"/><path class="cls-7" d="M190.74,373.87c-30.21,18.16-53.65,46.05-65.86,80.11"/><path class="cls-7" d="M270.71,350.87c-25.51.68-49.53,6.99-70.7,17.85"/><rect class="cls-7" x="191.01" y="315.59" width="8.84" height="73.92"/><rect class="cls-17" x="522.77" y="321.17" width="8.8" height="2.52" transform="translate(1054.34 644.86) rotate(180)"/><rect class="cls-17" x="536.81" y="321.17" width="8.8" height="2.52" transform="translate(1082.42 644.86) rotate(180)"/><rect class="cls-17" x="551.14" y="321.17" width="8.8" height="2.52" transform="translate(1111.08 644.86) rotate(180)"/><rect class="cls-17" x="497.98" y="321.17" width="8.8" height="2.52" transform="translate(1004.77 644.86) rotate(180)"/><rect class="cls-17" x="484.15" y="321.17" width="8.8" height="2.52" transform="translate(977.1 644.86) rotate(180)"/><rect class="cls-17" x="470.31" y="321.17" width="8.8" height="2.52" transform="translate(949.43 644.86) rotate(180)"/><rect class="cls-17" x="456.48" y="321.17" width="8.8" height="2.52" transform="translate(921.76 644.86) rotate(180)"/><rect class="cls-17" x="442.64" y="321.17" width="8.8" height="2.52" transform="translate(894.08 644.86) rotate(180)"/><rect class="cls-17" x="417.86" y="321.17" width="8.8" height="2.52" transform="translate(844.51 644.86) rotate(180)"/><rect class="cls-17" x="404.02" y="321.17" width="8.8" height="2.52" transform="translate(816.84 644.86) rotate(180)"/><rect class="cls-17" x="390.18" y="321.17" width="8.8" height="2.52" transform="translate(789.17 644.86) rotate(180)"/><rect class="cls-17" x="376.35" y="321.17" width="8.8" height="2.52" transform="translate(761.5 644.86) rotate(180)"/><rect class="cls-17" x="362.51" y="321.17" width="8.8" height="2.52" transform="translate(733.83 644.86) rotate(180)"/><rect class="cls-17" x="337.73" y="321.17" width="8.8" height="2.52" transform="translate(684.26 644.86) rotate(180)"/><rect class="cls-17" x="323.89" y="321.17" width="8.8" height="2.52" transform="translate(656.59 644.86) rotate(180)"/><rect class="cls-17" x="310.06" y="321.17" width="8.8" height="2.52" transform="translate(628.91 644.86) rotate(180)"/><rect class="cls-17" x="296.22" y="321.17" width="8.8" height="2.52" transform="translate(601.24 644.86) rotate(180)"/><rect class="cls-17" x="282.38" y="321.17" width="8.8" height="2.52" transform="translate(573.57 644.86) rotate(180)"/><polyline class="cls-7" points="510.49 385.05 510.49 315.59 519.33 315.59 519.33 385.05"/><polyline class="cls-7" points="430.62 385.05 430.62 315.59 439.46 315.59 439.46 385.05"/><line class="cls-7" x1="350.51" y1="323.69" x2="279.72" y2="323.69"/><line class="cls-7" x1="430.49" y1="323.69" x2="359.82" y2="323.69"/><line class="cls-7" x1="510.49" y1="323.69" x2="439.46" y2="323.69"/><line class="cls-7" x1="614.85" y1="323.69" x2="519.33" y2="323.69"/><line class="cls-7" x1="1320" y1="323.69" x2="984.25" y2="323.69"/><path class="cls-7" d="M359.81,387.27c9.5,6.46,21.44,17.39,29.22,25.79"/><path class="cls-7" d="M124.78,512.2v-137.49c0-10.58,7.68-19.15,17.16-19.15h27.17c9.48,0,17.16,8.58,17.16,19.15v1.95"/><path class="cls-7" d="M280.07,361.4c25.58.8,49.55,7.97,70.38,19.99"/><path class="cls-7" d="M359.81,373.84c10.55,6.33,20.27,13.85,28.98,22.41l9.31,9.02"/><path class="cls-7" d="M279.89,350.87c25.46.68,49.42,6.96,70.56,17.77"/><rect class="cls-7" x="270.88" y="315.59" width="8.84" height="47.97" transform="translate(550.6 679.16) rotate(180)"/><rect class="cls-7" x="350.75" y="315.59" width="8.84" height="73.92"/><path class="cls-7" d="M-27.51,319.32v-19.38c0-3.27,2.65-5.92,5.92-5.92H124.89c3.27,0,5.92,2.65,5.92,5.92v19.38"/><polyline class="cls-3" points="112.05 309.22 126.63 309.22 126.63 299.47 114.34 299.47"/><line class="cls-3" x1="58.12" y1="309.22" x2="99.21" y2="309.22"/><line class="cls-3" x1="5.28" y1="309.22" x2="45.93" y2="309.22"/><rect class="cls-7" x="-6.99" y="298.34" width="12.01" height="17.67"/><rect class="cls-7" x="46.32" y="298.34" width="12.01" height="17.67"/><polyline class="cls-7" points="107.96 316.01 99.64 316.01 99.64 298.34 111.66 298.34 111.66 312.62"/><line class="cls-7" x1="-.99" y1="298.34" x2="-.99" y2="311.89"/><line class="cls-7" x1="52.33" y1="315.61" x2="52.33" y2="303.65"/><line class="cls-7" x1="105.65" y1="298.34" x2="105.65" y2="311.89"/><line class="cls-3" x1="8.46" y1="299.47" x2="43.98" y2="299.47"/><line class="cls-3" x1="60.84" y1="299.47" x2="97.09" y2="299.47"/><path class="cls-7" d="M130.81,319.32v-19.38c0-3.27,2.65-5.92,5.92-5.92h146.48c3.27,0,5.92,2.65,5.92,5.92v19.38"/><polyline class="cls-3" points="270.37 309.22 284.95 309.22 284.95 299.47 272.66 299.47"/><line class="cls-3" x1="216.44" y1="309.22" x2="257.53" y2="309.22"/><line class="cls-3" x1="163.6" y1="309.22" x2="204.25" y2="309.22"/><polyline class="cls-3" points="151.15 309.22 134.7 309.22 134.7 299.47 147.49 299.47"/><polyline class="cls-7" points="159.22 316.01 151.32 316.01 151.32 298.34 163.34 298.34 163.34 312.55"/><rect class="cls-7" x="204.64" y="298.34" width="12.01" height="17.67"/><polyline class="cls-7" points="267.85 316.01 257.96 316.01 257.96 298.34 269.98 298.34 269.98 313.06"/><line class="cls-7" x1="157.33" y1="298.34" x2="157.33" y2="311.89"/><line class="cls-7" x1="210.65" y1="315.61" x2="210.65" y2="303.65"/><line class="cls-7" x1="263.97" y1="298.34" x2="263.97" y2="311.89"/><line class="cls-3" x1="166.78" y1="299.47" x2="202.29" y2="299.47"/><line class="cls-3" x1="219.16" y1="299.47" x2="255.41" y2="299.47"/><path class="cls-7" d="M289.13,319.32v-19.38c0-3.27,2.65-5.92,5.92-5.92h146.48c1.14,0,2.31.18,3.53.58,4.54,1.5,7.76,5.54,8.47,10.27l2.18,14.46"/><path class="cls-3" d="M430.98,299.47h16.06s3.56,3.73,3.56,9.75h-21.92"/><line class="cls-3" x1="374.76" y1="309.22" x2="415.85" y2="309.22"/><line class="cls-3" x1="321.92" y1="309.22" x2="362.57" y2="309.22"/><polyline class="cls-3" points="309.47 309.22 293.02 309.22 293.02 299.47 305.81 299.47"/><rect class="cls-7" x="309.64" y="298.34" width="12.01" height="17.67"/><rect class="cls-7" x="362.96" y="298.34" width="12.01" height="17.67"/><polyline class="cls-7" points="424.44 316.01 416.28 316.01 416.28 298.34 428.3 298.34 428.3 312.71"/><line class="cls-7" x1="315.65" y1="298.34" x2="315.65" y2="311.89"/><line class="cls-7" x1="368.97" y1="315.61" x2="368.97" y2="303.65"/><line class="cls-7" x1="422.29" y1="298.34" x2="422.29" y2="311.89"/><line class="cls-3" x1="325.1" y1="299.47" x2="360.61" y2="299.47"/><line class="cls-3" x1="377.48" y1="299.47" x2="413.73" y2="299.47"/><line class="cls-10" x1="485.24" y1="313.02" x2="485.24" y2="313.02"/><line class="cls-2" x1="485.24" y1="305.33" x2="485.24" y2="255.35"/><line class="cls-10" x1="485.24" y1="251.5" x2="485.24" y2="251.5"/><line class="cls-10" x1="290.2" y1="284.5" x2="290.2" y2="284.5"/><line class="cls-11" x1="290.2" y1="276.32" x2="290.2" y2="149.59"/><line class="cls-10" x1="290.2" y1="145.5" x2="290.2" y2="145.5"/><circle class="cls-18" cx="485.24" cy="204.4" r="47.44"/><path class="cls-16" d="M482.24,236.82v-3.59c0-1.2-.89-2.22-2.08-2.34-3.13-.31-6.19-1.19-8.53-2.38-1.04-.53-1.5-1.77-1.1-2.87l.35-.97c.47-1.31,1.97-1.94,3.23-1.33,2.65,1.28,5.91,2.17,9.36,2.17,5.74,0,9.62-3.31,9.62-7.92s-3.15-7.2-9.14-9.62c-8.25-3.23-13.34-6.95-13.34-13.99,0-6.15,4.01-10.94,10.4-12.63,1.05-.28,1.8-1.2,1.8-2.28v-3.91c0-1.3,1.05-2.36,2.36-2.36h.3c1.3,0,2.36,1.05,2.36,2.36v3.29c0,1.19.89,2.21,2.07,2.34,2.6.28,4.7.9,6.4,1.65,1.16.51,1.74,1.82,1.29,3.01l-.35.91c-.48,1.26-1.91,1.86-3.15,1.32-1.87-.82-4.5-1.62-7.97-1.62-6.23,0-8.57,3.72-8.57,6.95,0,4.2,2.99,6.31,10.02,9.22,8.33,3.4,12.53,7.6,12.53,14.8,0,5.93-3.83,11.51-11.05,13.38-1.03.27-1.72,1.22-1.72,2.28v4.13c0,1.3-1.05,2.36-2.36,2.36h-.38c-1.3,0-2.36-1.05-2.36-2.36Z"/><circle class="cls-12" cx="290.2" cy="92.02" r="38.6"/><path class="cls-18" d="M287.76,118.4v-2.93c0-.97-.73-1.81-1.69-1.9-2.55-.26-5.04-.97-6.94-1.94-.85-.43-1.22-1.44-.9-2.34l.28-.79c.38-1.07,1.61-1.58,2.63-1.08,2.15,1.04,4.81,1.77,7.61,1.77,4.67,0,7.83-2.7,7.83-6.45s-2.57-5.85-7.43-7.83c-6.71-2.63-10.85-5.66-10.85-11.38,0-5.01,3.26-8.9,8.47-10.28.85-.23,1.47-.97,1.47-1.86v-3.18c0-1.06.86-1.92,1.92-1.92h.25c1.06,0,1.92.86,1.92,1.92v2.68c0,.97.72,1.8,1.68,1.9,2.12.23,3.82.73,5.21,1.34.95.41,1.42,1.48,1.05,2.45l-.28.74c-.39,1.03-1.56,1.51-2.56,1.07-1.52-.67-3.66-1.31-6.48-1.31-5.07,0-6.97,3.03-6.97,5.66,0,3.42,2.43,5.13,8.16,7.5,6.78,2.76,10.2,6.18,10.2,12.04,0,4.83-3.12,9.37-8.99,10.89-.84.22-1.4.99-1.4,1.86v3.36c0,1.06-.86,1.92-1.92,1.92h-.31c-1.06,0-1.92-.86-1.92-1.92Z"/><path class="cls-7" d="M1806.59,376.12v-2.37c0-10.52-7.64-19.05-17.07-19.05h-27.02c-2.53,0-4.92.61-7.08,1.71-5.39,2.75-8.65,8.43-8.65,14.47v13.15"/><path class="cls-7" d="M1725.08,384.02v-12.8c0-5.86-2.97-11.41-8.03-14.37-2.37-1.38-5.06-2.17-7.91-2.17h-27.02c-3.55,0-6.85,1.21-9.58,3.28-4.27,3.23-6.65,8.37-6.65,13.73v12.33"/><line class="cls-13" x1="2247.38" y1="334.68" x2="2217.39" y2="334.68"/><line class="cls-13" x1="2208.86" y1="334.68" x2="2137.69" y2="334.68"/><line class="cls-13" x1="2129.15" y1="334.68" x2="2058.5" y2="334.68"/><line class="cls-13" x1="2049.45" y1="334.68" x2="1979.05" y2="334.68"/><line class="cls-13" x1="1970.11" y1="334.68" x2="1899.61" y2="334.68"/><line class="cls-13" x1="1890.82" y1="334.68" x2="1820.46" y2="334.68"/><line class="cls-13" x1="1810.89" y1="334.68" x2="1740.85" y2="334.68"/><line class="cls-13" x1="1731.93" y1="334.68" x2="1661.27" y2="334.68"/><polyline class="cls-7" points="2208.6 478.88 2208.6 314.94 2217.39 314.94 2217.39 476.75"/><polyline class="cls-7" points="2129.15 509.64 2129.15 314.94 2137.94 314.94 2137.94 509.89"/><polyline class="cls-7" points="2049.71 510.5 2049.71 314.94 2058.5 314.94 2058.5 510.5"/><path class="cls-7" d="M2142.69,504.54v-130.79c0-10.52,7.64-19.05,17.07-19.05h27.02c9.43,0,17.07,8.53,17.07,19.05v108.24"/><path class="cls-7" d="M2063.24,510.5v-136.76c0-10.52,7.64-19.05,17.07-19.05h27.02c9.43,0,17.07,8.53,17.07,19.05v136.44"/><path class="cls-7" d="M1979.32,386.27c39.62,26.94,65.64,72.71,65.64,124.23"/><path class="cls-7" d="M1899.78,360.5c25.52.76,49.44,7.92,70.21,19.91"/><path class="cls-7" d="M1979.32,372.91c30.05,18.06,53.37,45.81,65.51,79.68"/><path class="cls-7" d="M1899.78,350.03c25.38.67,49.27,6.95,70.32,17.75"/><rect class="cls-7" x="1970.26" y="314.94" width="8.79" height="73.53"/><polyline class="cls-7" points="1661.27 384.02 1661.27 314.94 1652.48 314.94 1652.48 384.02"/><polyline class="cls-7" points="1740.72 384.02 1740.72 314.94 1731.93 314.94 1731.93 384.02"/><path class="cls-7" d="M1811.15,386.24c-9.45,6.42-21.33,17.3-29.06,25.66"/><path class="cls-7" d="M2044.93,510.5v-136.76c0-10.52-7.64-19.05-17.07-19.05h-27.02c-9.43,0-17.07,8.53-17.07,19.05v1.94"/><path class="cls-7" d="M1890.47,360.51c-25.45.79-49.29,7.93-70.01,19.89"/><path class="cls-7" d="M1811.15,372.88c-10.49,6.3-20.16,13.78-28.82,22.29l-9.26,8.97"/><path class="cls-7" d="M1890.65,350.03c-25.32.67-49.16,6.92-70.18,17.68"/><rect class="cls-7" x="1890.82" y="314.94" width="8.79" height="47.72"/><rect class="cls-7" x="1811.37" y="314.94" width="8.79" height="73.53"/><path class="cls-7" d="M2362.59,410.5v-36.76c0-10.52-7.64-19.05-17.07-19.05h-27.02c-2.53,0-4.92.61-7.08,1.71-5.39,2.75-8.65,8.43-8.65,14.47v38.62"/><path class="cls-7" d="M2281.08,409.5v-38.28c0-5.86-2.97-11.41-8.03-14.37-2.37-1.38-5.06-2.17-7.91-2.17h-27.02c-3.55,0-6.85,1.21-9.58,3.28-4.27,3.23-6.65,8.37-6.65,13.73v37.81"/><line class="cls-13" x1="2526.11" y1="334.68" x2="2455.61" y2="334.68"/><line class="cls-13" x1="2446.82" y1="334.68" x2="2376.46" y2="334.68"/><line class="cls-13" x1="2366.89" y1="334.68" x2="2296.85" y2="334.68"/><line class="cls-13" x1="2287.93" y1="334.68" x2="2217.27" y2="334.68"/><path class="cls-7" d="M2455.78,360.5c25.52.76,49.44,7.92,70.21,19.91"/><path class="cls-7" d="M2455.78,350.03c25.38.67,49.27,6.95,70.32,17.75"/><polyline class="cls-7" points="2296.72 410.5 2296.72 314.94 2287.93 314.94 2287.93 410.5"/><path class="cls-7" d="M2367.15,386.24c-9.45,6.42-21.33,17.3-29.06,25.66"/><path class="cls-7" d="M2446.47,360.51c-25.45.79-49.29,7.93-70.01,19.89"/><path class="cls-7" d="M2367.15,372.88c-10.49,6.3-20.16,13.78-28.82,22.29l-16.33,15.33"/><path class="cls-7" d="M2446.65,350.03c-25.32.67-49.16,6.92-70.18,17.68"/><rect class="cls-7" x="2446.82" y="314.94" width="8.79" height="95.56"/><rect class="cls-7" x="2367.37" y="314.94" width="8.79" height="95.56"/><rect class="cls-19" x="2351.14" y="224.18" width="9.52" height="9.52"/><path class="cls-19" d="M2342.11,195.07c2.63,0,4.76-2.13,4.76-4.76s-2.13-4.76-4.76-4.76-4.76,2.13-4.76,4.76,2.13,4.76,4.76,4.76Z"/><rect class="cls-19" x="2323.56" y="224.18" width="9.52" height="9.52"/><rect class="cls-19" x="2351.14" y="252.38" width="9.52" height="9.52"/><rect class="cls-19" x="2323.56" y="252.38" width="9.52" height="9.52"/><rect class="cls-19" x="2351.14" y="280.57" width="9.52" height="9.52"/><rect class="cls-19" x="2323.56" y="280.57" width="9.52" height="9.52"/><rect class="cls-19" x="2265.01" y="224.18" width="9.52" height="9.52"/><rect class="cls-19" x="2237.42" y="224.18" width="9.52" height="9.52"/><rect class="cls-19" x="2209.84" y="224.18" width="9.52" height="9.52"/><rect class="cls-19" x="2265.01" y="252.38" width="9.52" height="9.52"/><rect class="cls-19" x="2237.42" y="252.38" width="9.52" height="9.52"/><rect class="cls-19" x="2209.84" y="252.38" width="9.52" height="9.52"/><line class="cls-13" x1="2320.94" y1="162.33" x2="2284.69" y2="196.18"/><line class="cls-13" x1="2302.93" y1="162.33" x2="2266.69" y2="196.18"/><line class="cls-13" x1="2284.93" y1="162.33" x2="2248.68" y2="196.18"/><line class="cls-13" x1="2266.93" y1="162.33" x2="2230.68" y2="196.18"/><line class="cls-13" x1="2248.92" y1="162.33" x2="2212.68" y2="196.18"/><polyline class="cls-7" points="2190.69 199.55 2233.55 159.02 2341.87 159.02"/><line class="cls-7" x1="2190.27" y1="323.61" x2="2190.27" y2="210.06"/><polyline class="cls-7" points="2298.59 323.61 2298.59 210.06 2186.55 210.06 2186.55 199.55 2299.01 199.55 2341.87 159.02 2385.77 199.55 2390.27 199.55 2390.27 210.06 2386.2 210.06 2386.2 323.5"/><polyline class="cls-13" points="2252.65 319.46 2252.65 285.94 2231.7 285.94 2231.7 319.46"/><rect class="cls-13" x="2267.74" y="291.73" width="8.2" height="15.62" transform="translate(4543.69 599.09) rotate(-180)"/><line class="cls-13" x1="2272.98" y1="296.65" x2="2268.09" y2="296.65"/><rect class="cls-13" x="2210.49" y="291.73" width="8.2" height="15.62" transform="translate(4429.19 599.09) rotate(-180)"/><line class="cls-13" x1="2215.73" y1="296.65" x2="2210.84" y2="296.65"/><polyline class="cls-13" points="2266.43 285.93 2271.85 280.57 2277.26 285.93"/><polyline class="cls-13" points="2209.18 285.93 2214.59 280.57 2220 285.93"/><circle class="cls-18" cx="2155.44" cy="280.7" r="18.35" transform="translate(432.83 1606.34) rotate(-45)"/><line class="cls-7" x1="2155.71" y1="320.84" x2="2155.71" y2="282.15"/><line class="cls-7" x1="2413.16" y1="321.15" x2="2413.16" y2="292.1"/><polygon class="cls-18" points="2399.58 302.11 2426.74 302.11 2413.16 265.3 2399.58 302.11"/><line class="cls-7" x1="2432.62" y1="321.15" x2="2432.62" y2="284.92"/><polygon class="cls-7" points="2449.56 297.41 2432.62 251.5 2415.69 297.41 2449.56 297.41"/><circle class="cls-18" cx="1956.08" cy="283.68" r="16.63"/><line class="cls-7" x1="1956.33" y1="321.89" x2="1956.33" y2="285"/><polyline class="cls-7" points="2001.31 262.48 2007.82 250.37 2014.33 262.48"/><polyline class="cls-7" points="1998.22 277.84 2007.82 260 2017.41 277.84"/><polyline class="cls-7" points="1996.68 290.34 2007.82 269.64 2018.95 290.34"/><polygon class="cls-18" points="1995.28 302.06 2007.82 278.75 2020.36 302.06 1995.28 302.06"/><line class="cls-7" x1="2007.82" y1="321.15" x2="2007.82" y2="250.76"/><path class="cls-19" d="M1867.19,252.73c-1.25,1.71-3.51,2.51-5.64,1.82-2.13-.7-3.48-2.67-3.48-4.8l9.11,2.98Z"/><path class="cls-18" d="M2076.6,322.5c1.71-2.99,4.92-5.01,8.62-5.01,1.39,0,2.72.29,3.92.81-.01-.27-.02-.54-.02-.81,0-7.98,6.47-14.45,14.45-14.45,6.36,0,11.76,4.11,13.69,9.83.73-.16,1.48-.25,2.25-.25,5.59,0,10.14,4.38,10.45,9.88h-53.36Z"/><polyline class="cls-13" points="1840.64 314.78 1840.64 282.41 1860 282.41 1860 314.78"/><polyline class="cls-7" points="1888.79 217.86 1850.5 176.03 1812.22 217.86"/><polyline class="cls-7" points="1966.43 217.86 1928.6 185.34 1909.23 199.46"/><polyline class="cls-7" points="1796.73 203.73 1773.42 185.34 1734.67 217.86"/><path class="cls-19" d="M1774.39,211.42c-2.64,0-4.78-2.2-4.78-4.91s2.14-4.91,4.78-4.91,4.77,2.2,4.77,4.91-2.14,4.91-4.77,4.91Z"/><rect class="cls-19" x="1757.15" y="246.96" width="9.55" height="9.82"/><rect class="cls-19" x="1782.07" y="246.96" width="9.55" height="9.82"/><rect class="cls-19" x="1833.27" y="247.69" width="9.55" height="9.82"/><rect class="cls-19" x="1858.19" y="247.69" width="9.55" height="9.82"/><rect class="cls-19" x="1757.15" y="272.59" width="9.55" height="9.82"/><rect class="cls-19" x="1782.07" y="272.59" width="9.55" height="9.82"/><path class="cls-19" d="M1928.6,211.42c-2.64,0-4.78-2.2-4.78-4.91s2.14-4.91,4.77-4.91,4.78,2.2,4.78,4.91-2.14,4.91-4.77,4.91Z"/><rect class="cls-19" x="1910.91" y="246.96" width="9.55" height="9.82"/><rect class="cls-19" x="1935.83" y="246.96" width="9.55" height="9.82"/><rect class="cls-19" x="1910.91" y="272.59" width="9.55" height="9.82"/><polyline class="cls-7" points="1734.34 218.29 1742.08 221.49 1749.83 218.29 1757.57 221.49 1765.31 218.29 1773.05 221.49 1780.79 218.29 1788.54 221.49 1796.28 218.29 1804.02 221.49 1811.76 218.29 1819.5 221.49 1827.24 218.29 1834.98 221.49 1842.72 218.29 1850.46 221.49 1858.2 218.29 1865.95 221.49 1873.69 218.29 1881.43 221.49 1889.18 218.29 1896.92 221.49 1904.67 218.29 1912.41 221.49 1920.15 218.29 1927.9 221.49 1935.64 218.29 1943.39 221.49 1951.13 218.29 1958.88 221.49 1966.63 218.29"/><line class="cls-7" x1="1888.86" y1="222.71" x2="1888.86" y2="314.75"/><line class="cls-7" x1="1812.61" y1="222.71" x2="1812.61" y2="314.78"/><line class="cls-3" x1="1874.34" y1="271.21" x2="1861.31" y2="271.21"/><line class="cls-3" x1="1839.34" y1="271.21" x2="1826.31" y2="271.21"/><line class="cls-3" x1="1853.11" y1="267.02" x2="1853.11" y2="275.4"/><line class="cls-3" x1="1846.04" y1="267.02" x2="1846.04" y2="275.4"/><line class="cls-6" x1="1966.63" y1="219.09" x2="1966.63" y2="265.3"/><line class="cls-6" x1="1734.67" y1="217.86" x2="1734.67" y2="306.75"/><line class="cls-7" x1="1836.38" y1="185.34" x2="1773.42" y2="185.34"/><line class="cls-7" x1="1928.6" y1="185.34" x2="1865.59" y2="185.34"/><path class="cls-7" d="M1878.83,294.22c0,1.76-1.43,3.19-3.19,3.19s-3.19-1.43-3.19-3.19"/><path class="cls-6" d="M1873.05,289.74c1.21-.32,2.59-2.08,2.59-2.08,0,0,.81,1.48,2.59,2.08,1.22.42,1.54,2.08,1.54,2.08h-4.13s-4.13,0-4.13,0c0,0,.26-1.75,1.54-2.08Z"/><path class="cls-7" d="M1828.9,293.51c0,1.76-1.43,3.19-3.19,3.19s-3.19-1.43-3.19-3.19"/><path class="cls-6" d="M1823.12,289.02c1.21-.32,2.59-2.08,2.59-2.08,0,0,.81,1.48,2.59,2.08,1.22.42,1.54,2.08,1.54,2.08h-4.13s-4.13,0-4.13,0c0,0,.26-1.75,1.54-2.08Z"/><path class="cls-18" d="M1713.26,322.24c-.07-.56-.11-1.12-.11-1.7,0-7.3,5.92-13.22,13.22-13.22,5.99,0,11.04,3.98,12.67,9.43,1.29-1.4,3.14-2.29,5.2-2.29,1.94,0,3.69.78,4.97,2.04,1.37-4.57,5.6-7.9,10.61-7.9,4.62,0,8.58,2.83,10.24,6.85.66-.18,1.34-.28,2.06-.28,4.09,0,7.45,3.09,7.88,7.06h-66.74Z"/><rect class="cls-1" x="2460.59" y="-407.83" width="1406.8" height="744.12" transform="translate(6327.98 -71.53) rotate(-180)"/></g></svg>