<svg width="25" height="26" viewBox="0 0 25 26" fill="none" xmlns="http://www.w3.org/2000/svg">
<path d="M24.8537 23.3959C24.9538 23.4982 25 23.632 25 23.7973C25 23.9625 24.9538 24.112 24.8537 24.2458L23.7292 25.3475C23.5983 25.4813 23.4519 25.5443 23.2902 25.5443C23.1285 25.5443 22.9975 25.4813 22.8974 25.3475L16.9439 19.3117C16.8438 19.1779 16.7976 19.0441 16.7976 18.9103V18.2099C15.8888 19.0048 14.8644 19.6343 13.7246 20.0829C12.5847 20.5314 11.3986 20.7596 10.1587 20.7596C8.30253 20.7596 6.60043 20.2953 5.05237 19.3589C3.50431 18.4303 2.27973 17.1712 1.36322 15.5894C0.454405 14.0076 0 12.2764 0 10.3798C0 8.48328 0.454405 6.74413 1.37092 5.17024C2.27973 3.58848 3.51201 2.33723 5.06007 1.40076C6.60043 0.464298 8.30253 0 10.1587 0C12.0148 0 13.7169 0.464298 15.2572 1.40076C16.8053 2.32936 18.0299 3.58848 18.9464 5.17024C19.8552 6.752 20.3173 8.49115 20.3173 10.3798C20.3173 11.6468 20.094 12.8587 19.655 14.0234C19.216 15.1881 18.6075 16.2347 17.8219 17.1633H18.5074C18.6691 17.1633 18.8001 17.2105 18.9002 17.3128L24.8537 23.3959ZM10.1587 18.3595C11.5604 18.3595 12.862 18.0053 14.0635 17.2892C15.2649 16.5731 16.22 15.5973 16.9208 14.3696C17.6217 13.142 17.9683 11.8121 17.9683 10.3798C17.9683 8.94758 17.6217 7.61764 16.9208 6.39C16.22 5.16237 15.2649 4.18655 14.0635 3.47043C12.862 2.75431 11.5527 2.39232 10.1587 2.39232C8.75693 2.39232 7.45533 2.74644 6.25385 3.46256C5.05237 4.17868 4.09735 5.1545 3.39649 6.38213C2.69563 7.60977 2.34904 8.93971 2.34904 10.372C2.34904 11.8042 2.69563 13.1341 3.39649 14.3618C4.09735 15.5894 5.05237 16.5652 6.25385 17.2813C7.45533 17.9975 8.75693 18.3595 10.1587 18.3595Z" fill="black"/>
</svg>
