<svg width="31" height="32" viewBox="0 0 31 32" fill="none" xmlns="http://www.w3.org/2000/svg">
<circle cx="15.5" cy="16.5" r="15.5" fill="#1696D2"/>
<path d="M16.8823 13.69V24H14.1223V13.69H16.8823ZM17.2123 10.76C17.2123 10.9933 17.1657 11.21 17.0723 11.41C16.979 11.61 16.8523 11.7867 16.6923 11.94C16.539 12.0933 16.3557 12.2133 16.1423 12.3C15.9357 12.3867 15.7123 12.43 15.4723 12.43C15.2457 12.43 15.029 12.3867 14.8223 12.3C14.6223 12.2133 14.4457 12.0933 14.2923 11.94C14.139 11.7867 14.0157 11.61 13.9223 11.41C13.8357 11.21 13.7923 10.9933 13.7923 10.76C13.7923 10.5267 13.8357 10.31 13.9223 10.11C14.0157 9.90333 14.139 9.72333 14.2923 9.57C14.4457 9.41667 14.6223 9.29667 14.8223 9.21C15.029 9.12333 15.2457 9.08 15.4723 9.08C15.7123 9.08 15.9357 9.12333 16.1423 9.21C16.3557 9.29667 16.539 9.41667 16.6923 9.57C16.8523 9.72333 16.979 9.90333 17.0723 10.11C17.1657 10.31 17.2123 10.5267 17.2123 10.76Z" fill="white"/>
</svg>
